# xmcd
#
# Track frame offsets: 
#        187
#        13797
#        26737
#        38832
#        56980
#        70292
#        82575
#        98682
#        113155
#        128200
#
# Disc length: 1908 seconds
#
# Revision: 5
# Processed by: cddbd v1.5.2PL0 Copyright (c) Steve Scherf et al.
# Submitted via: ExactAudioCopy v0.99pb4
#
DISCID=7d07720a
DTITLE=John Anderson - Solid Ground
DYEAR=1993
DGENRE=Country
TTITLE0=Money In The Bank
TTITLE1=I've Got It Made
TTITLE2=I Fell In The Water
TTITLE3=Bad Love Gone Good
TTITLE4=All Things To All Things
TTITLE5=Where I Come From
TTITLE6=I Wish I Could Have Been There
TTITLE7=Nashville Tears
TTITLE8=Can't Get Away From You
TTITLE9=Solid Ground
EXTD=
EXTT0=
EXTT1=
EXTT2=
EXTT3=
EXTT4=
EXTT5=
EXTT6=
EXTT7=
EXTT8=
EXTT9=
PLAYORDER=
